<svg width="156" height="50" viewBox="0 0 156 50" fill="none" xmlns="http://www.w3.org/2000/svg">
<path d="M0 25C0 11.1929 11.1929 0 25 0H131C144.807 0 156 11.1929 156 25C156 38.8071 144.807 50 131 50H25C11.1929 50 0 38.8071 0 25Z" fill="white"/>
<path d="M50.1969 25.7403C50.2082 24.9658 50.4219 24.2067 50.818 23.5334C51.2142 22.8601 51.7799 22.2945 52.4627 21.8891C52.0287 21.2908 51.4564 20.7986 50.7912 20.4516C50.126 20.1045 49.3862 19.9122 48.6306 19.89C47.0187 19.7234 45.4575 20.8209 44.6363 20.8209C43.8152 20.8209 42.5327 19.9047 41.1743 19.9292C40.2935 19.9581 39.4354 20.2065 38.6832 20.6503C37.9309 21.0942 37.3101 21.7183 36.8809 22.4624C35.0257 25.5688 36.4095 30.1305 38.1887 32.6441C39.0808 33.869 40.1199 35.2459 41.4784 35.1969C42.8369 35.1479 43.3032 34.3737 44.91 34.3737C46.5169 34.3737 46.9731 35.1969 48.3569 35.1626C49.7407 35.1283 50.6835 33.9278 51.5402 32.6882C52.1804 31.8133 52.6732 30.8459 53 29.8218C52.17 29.4824 51.4617 28.9144 50.9633 28.1887C50.4648 27.4629 50.1983 26.6114 50.1969 25.7403Z" fill="black"/>
<path d="M47.5864 18.2388C48.3743 17.3387 48.7656 16.1759 48.6762 15C47.4868 15.1201 46.3881 15.6695 45.5994 16.5385C45.2133 16.9625 44.9178 17.4561 44.7299 17.9909C44.542 18.5258 44.4654 19.0912 44.5045 19.6548C45.0987 19.6606 45.6865 19.5362 46.2237 19.2909C46.761 19.0457 47.2338 18.6859 47.6067 18.2388" fill="black"/>
<path d="M67.531 26.72L66.145 23.038C66.033 22.7533 65.9187 22.3917 65.802 21.953C65.7507 22.1723 65.6947 22.3753 65.634 22.562C65.5733 22.744 65.5173 22.905 65.466 23.045L64.08 26.72H67.531ZM70.632 30.5H69.365C69.2203 30.5 69.1037 30.465 69.015 30.395C68.9263 30.3203 68.8587 30.2293 68.812 30.122L67.972 27.896H63.632L62.792 30.122C62.7547 30.2153 62.6893 30.3017 62.596 30.381C62.5027 30.4603 62.386 30.5 62.246 30.5H60.979L64.976 20.42H66.635L70.632 30.5ZM73.006 28.708C73.216 28.9787 73.4447 29.17 73.692 29.282C73.944 29.3893 74.2217 29.443 74.525 29.443C75.113 29.443 75.5703 29.2283 75.897 28.799C76.2283 28.3697 76.394 27.7303 76.394 26.881C76.394 26.4423 76.3567 26.069 76.282 25.761C76.2073 25.4483 76.1 25.194 75.96 24.998C75.82 24.802 75.6497 24.6597 75.449 24.571C75.2483 24.4823 75.022 24.438 74.77 24.438C74.3873 24.438 74.056 24.522 73.776 24.69C73.5007 24.8533 73.244 25.089 73.006 25.397V28.708ZM72.929 24.396C73.2277 24.046 73.566 23.7637 73.944 23.549C74.3267 23.3343 74.77 23.227 75.274 23.227C75.6753 23.227 76.0393 23.3087 76.366 23.472C76.6927 23.6307 76.9727 23.864 77.206 24.172C77.4393 24.48 77.619 24.8627 77.745 25.32C77.8757 25.7727 77.941 26.293 77.941 26.881C77.941 27.4083 77.8687 27.9007 77.724 28.358C77.584 28.8107 77.381 29.205 77.115 29.541C76.849 29.8723 76.527 30.1337 76.149 30.325C75.771 30.5117 75.344 30.605 74.868 30.605C74.448 30.605 74.091 30.5373 73.797 30.402C73.5077 30.2667 73.244 30.08 73.006 29.842V32.873H71.501V23.36H72.411C72.6163 23.36 72.747 23.4557 72.803 23.647L72.929 24.396ZM80.9083 28.708C81.1183 28.9787 81.347 29.17 81.5943 29.282C81.8463 29.3893 82.124 29.443 82.4273 29.443C83.0153 29.443 83.4727 29.2283 83.7993 28.799C84.1307 28.3697 84.2963 27.7303 84.2963 26.881C84.2963 26.4423 84.259 26.069 84.1843 25.761C84.1097 25.4483 84.0023 25.194 83.8623 24.998C83.7223 24.802 83.552 24.6597 83.3513 24.571C83.1507 24.4823 82.9243 24.438 82.6723 24.438C82.2897 24.438 81.9583 24.522 81.6783 24.69C81.403 24.8533 81.1463 25.089 80.9083 25.397V28.708ZM80.8313 24.396C81.13 24.046 81.4683 23.7637 81.8463 23.549C82.229 23.3343 82.6723 23.227 83.1763 23.227C83.5777 23.227 83.9417 23.3087 84.2683 23.472C84.595 23.6307 84.875 23.864 85.1083 24.172C85.3417 24.48 85.5213 24.8627 85.6473 25.32C85.778 25.7727 85.8433 26.293 85.8433 26.881C85.8433 27.4083 85.771 27.9007 85.6263 28.358C85.4863 28.8107 85.2833 29.205 85.0173 29.541C84.7513 29.8723 84.4293 30.1337 84.0513 30.325C83.6733 30.5117 83.2463 30.605 82.7703 30.605C82.3503 30.605 81.9933 30.5373 81.6993 30.402C81.41 30.2667 81.1463 30.08 80.9083 29.842V32.873H79.4033V23.36H80.3133C80.5187 23.36 80.6493 23.4557 80.7053 23.647L80.8313 24.396ZM96.343 22.142C96.2917 22.226 96.238 22.289 96.182 22.331C96.126 22.3683 96.056 22.387 95.972 22.387C95.8833 22.387 95.783 22.3497 95.671 22.275C95.5637 22.2003 95.4283 22.1187 95.265 22.03C95.1063 21.9367 94.9173 21.8527 94.698 21.778C94.4787 21.6987 94.2173 21.659 93.914 21.659C93.634 21.659 93.3867 21.694 93.172 21.764C92.962 21.834 92.7847 21.932 92.64 22.058C92.4953 22.184 92.3857 22.3333 92.311 22.506C92.241 22.674 92.206 22.8583 92.206 23.059C92.206 23.3157 92.2737 23.5303 92.409 23.703C92.5443 23.871 92.7217 24.0157 92.941 24.137C93.165 24.2583 93.4193 24.3657 93.704 24.459C93.9887 24.5477 94.278 24.6433 94.572 24.746C94.8707 24.8487 95.1623 24.9653 95.447 25.096C95.7317 25.2267 95.9837 25.3923 96.203 25.593C96.427 25.7937 96.6067 26.0387 96.742 26.328C96.8773 26.6173 96.945 26.9697 96.945 27.385C96.945 27.833 96.868 28.253 96.714 28.645C96.56 29.037 96.336 29.38 96.042 29.674C95.7527 29.9633 95.3933 30.192 94.964 30.36C94.5393 30.528 94.054 30.612 93.508 30.612C93.186 30.612 92.871 30.5793 92.563 30.514C92.2597 30.4533 91.968 30.367 91.688 30.255C91.4127 30.1383 91.1537 29.9983 90.911 29.835C90.6683 29.6717 90.4513 29.4897 90.26 29.289L90.736 28.505C90.778 28.4397 90.8317 28.3883 90.897 28.351C90.9623 28.3137 91.0347 28.295 91.114 28.295C91.2213 28.295 91.3403 28.3463 91.471 28.449C91.6017 28.547 91.758 28.6567 91.94 28.778C92.1267 28.8947 92.3507 29.0043 92.612 29.107C92.8733 29.205 93.186 29.254 93.55 29.254C94.1427 29.254 94.6 29.1093 94.922 28.82C95.2487 28.5307 95.412 28.1317 95.412 27.623C95.412 27.3383 95.3443 27.1073 95.209 26.93C95.0737 26.748 94.894 26.5963 94.67 26.475C94.4507 26.3537 94.1987 26.251 93.914 26.167C93.6293 26.083 93.34 25.9943 93.046 25.901C92.752 25.803 92.4627 25.691 92.178 25.565C91.8933 25.4343 91.639 25.2663 91.415 25.061C91.1957 24.851 91.0183 24.5943 90.883 24.291C90.7477 23.983 90.68 23.6003 90.68 23.143C90.68 22.779 90.75 22.4267 90.89 22.086C91.0347 21.7453 91.2423 21.4443 91.513 21.183C91.7883 20.917 92.1267 20.7047 92.528 20.546C92.9293 20.3873 93.3867 20.308 93.9 20.308C94.4787 20.308 95.0083 20.399 95.489 20.581C95.9743 20.763 96.392 21.022 96.742 21.358L96.343 22.142ZM100.409 30.612C99.8165 30.612 99.3591 30.4463 99.0371 30.115C98.7198 29.779 98.5611 29.3077 98.5611 28.701V24.543H97.7771C97.6931 24.543 97.6208 24.5173 97.5601 24.466C97.4995 24.41 97.4691 24.3283 97.4691 24.221V23.612L98.6241 23.444L98.9531 21.379C98.9765 21.2997 99.0161 21.2367 99.0721 21.19C99.1281 21.1387 99.2028 21.113 99.2961 21.113H100.066V23.458H102.047V24.543H100.066V28.596C100.066 28.8527 100.129 29.0487 100.255 29.184C100.381 29.3193 100.549 29.387 100.759 29.387C100.876 29.387 100.976 29.373 101.06 29.345C101.144 29.3123 101.216 29.2797 101.277 29.247C101.338 29.2097 101.389 29.177 101.431 29.149C101.478 29.1163 101.522 29.1 101.564 29.1C101.648 29.1 101.716 29.1467 101.767 29.24L102.215 29.975C101.982 30.1803 101.706 30.339 101.389 30.451C101.072 30.5583 100.745 30.612 100.409 30.612ZM106.266 23.248C106.793 23.248 107.269 23.3343 107.694 23.507C108.123 23.6797 108.487 23.9247 108.786 24.242C109.089 24.5593 109.322 24.9443 109.486 25.397C109.649 25.8497 109.731 26.3583 109.731 26.923C109.731 27.4877 109.649 27.9963 109.486 28.449C109.322 28.9017 109.089 29.289 108.786 29.611C108.487 29.9283 108.123 30.1733 107.694 30.346C107.269 30.5187 106.793 30.605 106.266 30.605C105.734 30.605 105.253 30.5187 104.824 30.346C104.399 30.1733 104.035 29.9283 103.732 29.611C103.428 29.289 103.195 28.9017 103.032 28.449C102.868 27.9963 102.787 27.4877 102.787 26.923C102.787 26.3583 102.868 25.8497 103.032 25.397C103.195 24.9443 103.428 24.5593 103.732 24.242C104.035 23.9247 104.399 23.6797 104.824 23.507C105.253 23.3343 105.734 23.248 106.266 23.248ZM106.266 29.429C106.91 29.429 107.388 29.2143 107.701 28.785C108.018 28.351 108.177 27.7327 108.177 26.93C108.177 26.1273 108.018 25.509 107.701 25.075C107.388 24.6363 106.91 24.417 106.266 24.417C105.612 24.417 105.127 24.6363 104.81 25.075C104.492 25.509 104.334 26.1273 104.334 26.93C104.334 27.7327 104.492 28.351 104.81 28.785C105.127 29.2143 105.612 29.429 106.266 29.429ZM112.598 24.683C112.822 24.2303 113.092 23.8757 113.41 23.619C113.727 23.3577 114.107 23.227 114.551 23.227C114.705 23.227 114.849 23.2457 114.985 23.283C115.12 23.3157 115.241 23.367 115.349 23.437L115.244 24.571C115.225 24.6503 115.195 24.7063 115.153 24.739C115.115 24.767 115.064 24.781 114.999 24.781C114.929 24.781 114.828 24.7693 114.698 24.746C114.567 24.718 114.429 24.704 114.285 24.704C114.075 24.704 113.888 24.7343 113.725 24.795C113.566 24.8557 113.421 24.9443 113.291 25.061C113.165 25.1777 113.053 25.32 112.955 25.488C112.857 25.656 112.766 25.8473 112.682 26.062V30.5H111.177V23.36H112.052C112.21 23.36 112.32 23.3903 112.381 23.451C112.441 23.507 112.483 23.6073 112.507 23.752L112.598 24.683ZM120.782 26.125C120.782 25.873 120.744 25.6397 120.67 25.425C120.6 25.2057 120.495 25.0167 120.355 24.858C120.215 24.6947 120.04 24.5687 119.83 24.48C119.624 24.3867 119.386 24.34 119.116 24.34C118.57 24.34 118.14 24.4963 117.828 24.809C117.515 25.1217 117.317 25.5603 117.233 26.125H120.782ZM117.191 27.049C117.209 27.455 117.272 27.8073 117.38 28.106C117.487 28.4 117.629 28.645 117.807 28.841C117.989 29.037 118.203 29.184 118.451 29.282C118.703 29.3753 118.983 29.422 119.291 29.422C119.585 29.422 119.839 29.3893 120.054 29.324C120.268 29.254 120.455 29.1793 120.614 29.1C120.772 29.016 120.908 28.9413 121.02 28.876C121.132 28.806 121.234 28.771 121.328 28.771C121.449 28.771 121.542 28.8177 121.608 28.911L122.035 29.464C121.857 29.674 121.657 29.8513 121.433 29.996C121.209 30.1407 120.971 30.2597 120.719 30.353C120.467 30.4417 120.208 30.5047 119.942 30.542C119.676 30.584 119.417 30.605 119.165 30.605C118.67 30.605 118.21 30.5233 117.786 30.36C117.366 30.192 116.999 29.947 116.687 29.625C116.379 29.303 116.136 28.904 115.959 28.428C115.786 27.952 115.7 27.4037 115.7 26.783C115.7 26.2883 115.777 25.8263 115.931 25.397C116.089 24.9677 116.313 24.5943 116.603 24.277C116.897 23.9597 117.251 23.71 117.667 23.528C118.087 23.3413 118.56 23.248 119.088 23.248C119.526 23.248 119.932 23.3203 120.306 23.465C120.679 23.605 121.001 23.8127 121.272 24.088C121.542 24.3633 121.752 24.7017 121.902 25.103C122.056 25.4997 122.133 25.9523 122.133 26.461C122.133 26.6943 122.107 26.8507 122.056 26.93C122.004 27.0093 121.911 27.049 121.776 27.049H117.191Z" fill="black"/>
</svg>
