<svg width="156" height="50" viewBox="0 0 156 50" fill="none" xmlns="http://www.w3.org/2000/svg">
<path d="M0 25C0 11.1929 11.1929 0 25 0H131C144.807 0 156 11.1929 156 25C156 38.8071 144.807 50 131 50H25C11.1929 50 0 38.8071 0 25Z" fill="white"/>
<path d="M44.5026 15C36.6055 15 34.5 17.1055 34.5 25.0026C34.5 32.8997 36.6055 35 44.5026 35C52.3997 35 54.5 32.8945 54.5 25.0026C54.5 17.1107 52.3945 15 44.5026 15Z" fill="url(#paint0_linear_415_1074)"/>
<mask id="mask0_415_1074" style="mask-type:alpha" maskUnits="userSpaceOnUse" x="34" y="15" width="21" height="20">
<path d="M44.5026 15C36.6055 15 34.5 17.1055 34.5 25.0026C34.5 32.8997 36.6055 35 44.5026 35C52.3997 35 54.5 32.8945 54.5 25.0026C54.5 17.1107 52.3945 15 44.5026 15Z" fill="#C4C4C4"/>
</mask>
<g mask="url(#mask0_415_1074)">
<path d="M41.4873 34.9948L54.5001 35V17.4539L41.4873 26.4843V34.9948Z" fill="url(#paint1_linear_415_1074)"/>
</g>
<mask id="mask1_415_1074" style="mask-type:alpha" maskUnits="userSpaceOnUse" x="34" y="15" width="21" height="20">
<path d="M44.5026 15C36.6055 15 34.5 17.1055 34.5 25.0026C34.5 32.8997 36.6055 35 44.5026 35C52.3997 35 54.5 32.8945 54.5 25.0026C54.5 17.1107 52.3945 15 44.5026 15Z" fill="#C4C4C4"/>
</mask>
<g mask="url(#mask1_415_1074)">
<path d="M41.4873 34.9947L34.5 34.9999V18.4832L41.4873 26.4842V34.9947Z" fill="url(#paint2_linear_415_1074)"/>
</g>
<path d="M44.6483 19.2474L41.0559 21.3269C40.7498 21.5034 40.5264 21.7943 40.4347 22.1355C40.3431 22.4768 40.3907 22.8404 40.5672 23.1465C40.7437 23.4526 41.0346 23.6761 41.3758 23.7677C41.7171 23.8594 42.0807 23.8117 42.3868 23.6352L45.4282 21.878L43.9829 23.4377V29.5255C43.9829 29.8785 44.1231 30.217 44.3727 30.4666C44.6223 30.7162 44.9608 30.8564 45.3138 30.8564C45.6668 30.8564 46.0053 30.7162 46.2549 30.4666C46.5045 30.217 46.6447 29.8785 46.6447 29.5255V20.3859C46.6449 20.1508 46.584 19.9197 46.4679 19.7153C46.2863 19.4145 45.994 19.197 45.6537 19.1095C45.3135 19.022 44.9525 19.0715 44.6483 19.2474Z" fill="white"/>
<path d="M71.168 25.46C71.168 26.2067 71.0467 26.895 70.804 27.525C70.5613 28.155 70.2183 28.6987 69.775 29.156C69.3363 29.6087 68.8067 29.9633 68.186 30.22C67.57 30.4767 66.884 30.605 66.128 30.605C65.3767 30.605 64.6907 30.4767 64.07 30.22C63.454 29.9633 62.9243 29.6087 62.481 29.156C62.0377 28.6987 61.6947 28.155 61.452 27.525C61.2093 26.895 61.088 26.2067 61.088 25.46C61.088 24.7133 61.2093 24.025 61.452 23.395C61.6947 22.765 62.0377 22.2213 62.481 21.764C62.9243 21.3067 63.454 20.9497 64.07 20.693C64.6907 20.4363 65.3767 20.308 66.128 20.308C66.884 20.308 67.57 20.4363 68.186 20.693C68.8067 20.9497 69.3363 21.3067 69.775 21.764C70.2183 22.2213 70.5613 22.765 70.804 23.395C71.0467 24.025 71.168 24.7133 71.168 25.46ZM69.495 25.46C69.495 24.8813 69.4157 24.361 69.257 23.899C69.103 23.437 68.879 23.045 68.585 22.723C68.2957 22.401 67.9433 22.1537 67.528 21.981C67.1127 21.8083 66.646 21.722 66.128 21.722C65.6147 21.722 65.1503 21.8083 64.735 21.981C64.3197 22.1537 63.965 22.401 63.671 22.723C63.377 23.045 63.1507 23.437 62.992 23.899C62.8333 24.361 62.754 24.8813 62.754 25.46C62.754 26.0433 62.8333 26.566 62.992 27.028C63.1507 27.49 63.377 27.882 63.671 28.204C63.965 28.5213 64.3197 28.7663 64.735 28.939C65.1503 29.107 65.6147 29.191 66.128 29.191C66.646 29.191 67.1127 29.107 67.528 28.939C67.9433 28.7663 68.2957 28.5213 68.585 28.204C68.879 27.882 69.103 27.49 69.257 27.028C69.4157 26.566 69.495 26.0433 69.495 25.46ZM73.9666 24.305C74.1206 24.1463 74.2792 24.004 74.4426 23.878C74.6106 23.7473 74.7879 23.6353 74.9746 23.542C75.1612 23.4487 75.3596 23.3763 75.5696 23.325C75.7796 23.2737 76.0082 23.248 76.2556 23.248C76.6476 23.248 76.9906 23.3133 77.2846 23.444C77.5832 23.5747 77.8329 23.759 78.0336 23.997C78.2389 24.235 78.3929 24.522 78.4956 24.858C78.5982 25.1893 78.6496 25.5557 78.6496 25.957V30.5H77.1516V25.957C77.1516 25.4763 77.0396 25.103 76.8156 24.837C76.5962 24.571 76.2602 24.438 75.8076 24.438C75.4716 24.438 75.1589 24.515 74.8696 24.669C74.5849 24.823 74.3166 25.033 74.0646 25.299V30.5H72.5596V23.36H73.4696C73.6749 23.36 73.8056 23.4557 73.8616 23.647L73.9666 24.305ZM85.0902 26.125C85.0902 25.873 85.0529 25.6397 84.9782 25.425C84.9082 25.2057 84.8032 25.0167 84.6632 24.858C84.5232 24.6947 84.3482 24.5687 84.1382 24.48C83.9329 24.3867 83.6949 24.34 83.4242 24.34C82.8782 24.34 82.4489 24.4963 82.1362 24.809C81.8236 25.1217 81.6252 25.5603 81.5412 26.125H85.0902ZM81.4992 27.049C81.5179 27.455 81.5809 27.8073 81.6882 28.106C81.7956 28.4 81.9379 28.645 82.1152 28.841C82.2972 29.037 82.5119 29.184 82.7592 29.282C83.0112 29.3753 83.2912 29.422 83.5992 29.422C83.8932 29.422 84.1476 29.3893 84.3622 29.324C84.5769 29.254 84.7636 29.1793 84.9222 29.1C85.0809 29.016 85.2162 28.9413 85.3282 28.876C85.4402 28.806 85.5429 28.771 85.6362 28.771C85.7576 28.771 85.8509 28.8177 85.9162 28.911L86.3432 29.464C86.1659 29.674 85.9652 29.8513 85.7412 29.996C85.5172 30.1407 85.2792 30.2597 85.0272 30.353C84.7752 30.4417 84.5162 30.5047 84.2502 30.542C83.9842 30.584 83.7252 30.605 83.4732 30.605C82.9786 30.605 82.5189 30.5233 82.0942 30.36C81.6742 30.192 81.3079 29.947 80.9952 29.625C80.6872 29.303 80.4446 28.904 80.2672 28.428C80.0946 27.952 80.0082 27.4037 80.0082 26.783C80.0082 26.2883 80.0852 25.8263 80.2392 25.397C80.3979 24.9677 80.6219 24.5943 80.9112 24.277C81.2052 23.9597 81.5599 23.71 81.9752 23.528C82.3952 23.3413 82.8689 23.248 83.3962 23.248C83.8349 23.248 84.2409 23.3203 84.6142 23.465C84.9876 23.605 85.3096 23.8127 85.5802 24.088C85.8509 24.3633 86.0609 24.7017 86.2102 25.103C86.3642 25.4997 86.4412 25.9523 86.4412 26.461C86.4412 26.6943 86.4156 26.8507 86.3642 26.93C86.3129 27.0093 86.2196 27.049 86.0842 27.049H81.4992ZM96.8821 22.142C96.8307 22.226 96.7771 22.289 96.7211 22.331C96.6651 22.3683 96.5951 22.387 96.5111 22.387C96.4224 22.387 96.3221 22.3497 96.2101 22.275C96.1027 22.2003 95.9674 22.1187 95.8041 22.03C95.6454 21.9367 95.4564 21.8527 95.2371 21.778C95.0177 21.6987 94.7564 21.659 94.4531 21.659C94.1731 21.659 93.9257 21.694 93.7111 21.764C93.5011 21.834 93.3237 21.932 93.1791 22.058C93.0344 22.184 92.9247 22.3333 92.8501 22.506C92.7801 22.674 92.7451 22.8583 92.7451 23.059C92.7451 23.3157 92.8127 23.5303 92.9481 23.703C93.0834 23.871 93.2607 24.0157 93.4801 24.137C93.7041 24.2583 93.9584 24.3657 94.2431 24.459C94.5277 24.5477 94.8171 24.6433 95.1111 24.746C95.4097 24.8487 95.7014 24.9653 95.9861 25.096C96.2707 25.2267 96.5227 25.3923 96.7421 25.593C96.9661 25.7937 97.1457 26.0387 97.2811 26.328C97.4164 26.6173 97.4841 26.9697 97.4841 27.385C97.4841 27.833 97.4071 28.253 97.2531 28.645C97.0991 29.037 96.8751 29.38 96.5811 29.674C96.2917 29.9633 95.9324 30.192 95.5031 30.36C95.0784 30.528 94.5931 30.612 94.0471 30.612C93.7251 30.612 93.4101 30.5793 93.1021 30.514C92.7987 30.4533 92.5071 30.367 92.2271 30.255C91.9517 30.1383 91.6927 29.9983 91.4501 29.835C91.2074 29.6717 90.9904 29.4897 90.7991 29.289L91.2751 28.505C91.3171 28.4397 91.3707 28.3883 91.4361 28.351C91.5014 28.3137 91.5737 28.295 91.6531 28.295C91.7604 28.295 91.8794 28.3463 92.0101 28.449C92.1407 28.547 92.2971 28.6567 92.4791 28.778C92.6657 28.8947 92.8897 29.0043 93.1511 29.107C93.4124 29.205 93.7251 29.254 94.0891 29.254C94.6817 29.254 95.1391 29.1093 95.4611 28.82C95.7877 28.5307 95.9511 28.1317 95.9511 27.623C95.9511 27.3383 95.8834 27.1073 95.7481 26.93C95.6127 26.748 95.4331 26.5963 95.2091 26.475C94.9897 26.3537 94.7377 26.251 94.4531 26.167C94.1684 26.083 93.8791 25.9943 93.5851 25.901C93.2911 25.803 93.0017 25.691 92.7171 25.565C92.4324 25.4343 92.1781 25.2663 91.9541 25.061C91.7347 24.851 91.5574 24.5943 91.4221 24.291C91.2867 23.983 91.2191 23.6003 91.2191 23.143C91.2191 22.779 91.2891 22.4267 91.4291 22.086C91.5737 21.7453 91.7814 21.4443 92.0521 21.183C92.3274 20.917 92.6657 20.7047 93.0671 20.546C93.4684 20.3873 93.9257 20.308 94.4391 20.308C95.0177 20.308 95.5474 20.399 96.0281 20.581C96.5134 20.763 96.9311 21.022 97.2811 21.358L96.8821 22.142ZM100.948 30.612C100.356 30.612 99.8982 30.4463 99.5762 30.115C99.2589 29.779 99.1002 29.3077 99.1002 28.701V24.543H98.3162C98.2322 24.543 98.1599 24.5173 98.0992 24.466C98.0385 24.41 98.0082 24.3283 98.0082 24.221V23.612L99.1632 23.444L99.4922 21.379C99.5155 21.2997 99.5552 21.2367 99.6112 21.19C99.6672 21.1387 99.7419 21.113 99.8352 21.113H100.605V23.458H102.586V24.543H100.605V28.596C100.605 28.8527 100.668 29.0487 100.794 29.184C100.92 29.3193 101.088 29.387 101.298 29.387C101.415 29.387 101.515 29.373 101.599 29.345C101.683 29.3123 101.756 29.2797 101.816 29.247C101.877 29.2097 101.928 29.177 101.97 29.149C102.017 29.1163 102.061 29.1 102.103 29.1C102.187 29.1 102.255 29.1467 102.306 29.24L102.754 29.975C102.521 30.1803 102.246 30.339 101.928 30.451C101.611 30.5583 101.284 30.612 100.948 30.612ZM106.805 23.248C107.332 23.248 107.808 23.3343 108.233 23.507C108.662 23.6797 109.026 23.9247 109.325 24.242C109.628 24.5593 109.861 24.9443 110.025 25.397C110.188 25.8497 110.27 26.3583 110.27 26.923C110.27 27.4877 110.188 27.9963 110.025 28.449C109.861 28.9017 109.628 29.289 109.325 29.611C109.026 29.9283 108.662 30.1733 108.233 30.346C107.808 30.5187 107.332 30.605 106.805 30.605C106.273 30.605 105.792 30.5187 105.363 30.346C104.938 30.1733 104.574 29.9283 104.271 29.611C103.967 29.289 103.734 28.9017 103.571 28.449C103.407 27.9963 103.326 27.4877 103.326 26.923C103.326 26.3583 103.407 25.8497 103.571 25.397C103.734 24.9443 103.967 24.5593 104.271 24.242C104.574 23.9247 104.938 23.6797 105.363 23.507C105.792 23.3343 106.273 23.248 106.805 23.248ZM106.805 29.429C107.449 29.429 107.927 29.2143 108.24 28.785C108.557 28.351 108.716 27.7327 108.716 26.93C108.716 26.1273 108.557 25.509 108.24 25.075C107.927 24.6363 107.449 24.417 106.805 24.417C106.151 24.417 105.666 24.6363 105.349 25.075C105.031 25.509 104.873 26.1273 104.873 26.93C104.873 27.7327 105.031 28.351 105.349 28.785C105.666 29.2143 106.151 29.429 106.805 29.429ZM113.137 24.683C113.361 24.2303 113.631 23.8757 113.949 23.619C114.266 23.3577 114.646 23.227 115.09 23.227C115.244 23.227 115.388 23.2457 115.524 23.283C115.659 23.3157 115.78 23.367 115.888 23.437L115.783 24.571C115.764 24.6503 115.734 24.7063 115.692 24.739C115.654 24.767 115.603 24.781 115.538 24.781C115.468 24.781 115.367 24.7693 115.237 24.746C115.106 24.718 114.968 24.704 114.824 24.704C114.614 24.704 114.427 24.7343 114.264 24.795C114.105 24.8557 113.96 24.9443 113.83 25.061C113.704 25.1777 113.592 25.32 113.494 25.488C113.396 25.656 113.305 25.8473 113.221 26.062V30.5H111.716V23.36H112.591C112.749 23.36 112.859 23.3903 112.92 23.451C112.98 23.507 113.022 23.6073 113.046 23.752L113.137 24.683ZM121.321 26.125C121.321 25.873 121.283 25.6397 121.209 25.425C121.139 25.2057 121.034 25.0167 120.894 24.858C120.754 24.6947 120.579 24.5687 120.369 24.48C120.163 24.3867 119.925 24.34 119.655 24.34C119.109 24.34 118.679 24.4963 118.367 24.809C118.054 25.1217 117.856 25.5603 117.772 26.125H121.321ZM117.73 27.049C117.748 27.455 117.811 27.8073 117.919 28.106C118.026 28.4 118.168 28.645 118.346 28.841C118.528 29.037 118.742 29.184 118.99 29.282C119.242 29.3753 119.522 29.422 119.83 29.422C120.124 29.422 120.378 29.3893 120.593 29.324C120.807 29.254 120.994 29.1793 121.153 29.1C121.311 29.016 121.447 28.9413 121.559 28.876C121.671 28.806 121.773 28.771 121.867 28.771C121.988 28.771 122.081 28.8177 122.147 28.911L122.574 29.464C122.396 29.674 122.196 29.8513 121.972 29.996C121.748 30.1407 121.51 30.2597 121.258 30.353C121.006 30.4417 120.747 30.5047 120.481 30.542C120.215 30.584 119.956 30.605 119.704 30.605C119.209 30.605 118.749 30.5233 118.325 30.36C117.905 30.192 117.538 29.947 117.226 29.625C116.918 29.303 116.675 28.904 116.498 28.428C116.325 27.952 116.239 27.4037 116.239 26.783C116.239 26.2883 116.316 25.8263 116.47 25.397C116.628 24.9677 116.852 24.5943 117.142 24.277C117.436 23.9597 117.79 23.71 118.206 23.528C118.626 23.3413 119.099 23.248 119.627 23.248C120.065 23.248 120.471 23.3203 120.845 23.465C121.218 23.605 121.54 23.8127 121.811 24.088C122.081 24.3633 122.291 24.7017 122.441 25.103C122.595 25.4997 122.672 25.9523 122.672 26.461C122.672 26.6943 122.646 26.8507 122.595 26.93C122.543 27.0093 122.45 27.049 122.315 27.049H117.73Z" fill="black"/>
<defs>
<linearGradient id="paint0_linear_415_1074" x1="33.0183" y1="13.4403" x2="52.6076" y2="33.1596" gradientUnits="userSpaceOnUse">
<stop stop-color="#F4752E"/>
<stop offset="1" stop-color="#ED1573"/>
</linearGradient>
<linearGradient id="paint1_linear_415_1074" x1="39.361" y1="18.8056" x2="49.374" y2="27.4149" gradientUnits="userSpaceOnUse">
<stop stop-color="white" stop-opacity="0.5"/>
<stop offset="1" stop-color="white" stop-opacity="0"/>
</linearGradient>
<linearGradient id="paint2_linear_415_1074" x1="213.584" y1="-15.5414" x2="-63.5792" y2="137.246" gradientUnits="userSpaceOnUse">
<stop stop-color="white" stop-opacity="0.5"/>
<stop offset="1" stop-color="white" stop-opacity="0"/>
</linearGradient>
</defs>
</svg>
